<?xml version="1.0" encoding="UTF-8" standalone="no"?>
<!-- Created with Inkscape (http://www.inkscape.org/) -->

<svg
   width="68.760742"
   height="68.760742"
   viewBox="0 0 68.760742 68.760742"
   version="1.1"
   id="svg5"
   xml:space="preserve"
   inkscape:version="1.2.2 (b0a8486541, 2022-12-01)"
   sodipodi:docname="iSFN_Favicon.svg"
   xmlns:inkscape="http://www.inkscape.org/namespaces/inkscape"
   xmlns:sodipodi="http://sodipodi.sourceforge.net/DTD/sodipodi-0.dtd"
   xmlns="http://www.w3.org/2000/svg"
   xmlns:svg="http://www.w3.org/2000/svg"><sodipodi:namedview
     id="namedview7"
     pagecolor="#505050"
     bordercolor="#ffffff"
     borderopacity="1"
     inkscape:showpageshadow="0"
     inkscape:pageopacity="0"
     inkscape:pagecheckerboard="1"
     inkscape:deskcolor="#505050"
     inkscape:document-units="px"
     showgrid="false"
     inkscape:zoom="3.2617188"
     inkscape:cx="48.440718"
     inkscape:cy="81.858681"
     inkscape:window-width="1920"
     inkscape:window-height="1048"
     inkscape:window-x="1920"
     inkscape:window-y="7"
     inkscape:window-maximized="1"
     inkscape:current-layer="layer1" /><defs
     id="defs2"><inkscape:path-effect
       effect="powermask"
       id="path-effect2012"
       is_visible="true"
       lpeversion="1"
       uri="#mask-powermask-path-effect2012"
       invert="false"
       hide_mask="false"
       background="true"
       background_color="#ffffffff" /><filter
       id="mask-powermask-path-effect500_inverse"
       inkscape:label="filtermask-powermask-path-effect500"
       style="color-interpolation-filters:sRGB"
       height="100"
       width="100"
       x="-50"
       y="-50"><feColorMatrix
         id="mask-powermask-path-effect500_primitive1"
         values="1"
         type="saturate"
         result="fbSourceGraphic" /><feColorMatrix
         id="mask-powermask-path-effect500_primitive2"
         values="-1 0 0 0 1 0 -1 0 0 1 0 0 -1 0 1 0 0 0 1 0 "
         in="fbSourceGraphic" /></filter><filter
       id="mask-powermask-path-effect512_inverse"
       inkscape:label="filtermask-powermask-path-effect512"
       style="color-interpolation-filters:sRGB"
       height="100"
       width="100"
       x="-50"
       y="-50"><feColorMatrix
         id="mask-powermask-path-effect512_primitive1"
         values="1"
         type="saturate"
         result="fbSourceGraphic" /><feColorMatrix
         id="mask-powermask-path-effect512_primitive2"
         values="-1 0 0 0 1 0 -1 0 0 1 0 0 -1 0 1 0 0 0 1 0 "
         in="fbSourceGraphic" /></filter><filter
       id="mask-powermask-path-effect525_inverse"
       inkscape:label="filtermask-powermask-path-effect525"
       style="color-interpolation-filters:sRGB"
       height="100"
       width="100"
       x="-50"
       y="-50"><feColorMatrix
         id="mask-powermask-path-effect525_primitive1"
         values="1"
         type="saturate"
         result="fbSourceGraphic" /><feColorMatrix
         id="mask-powermask-path-effect525_primitive2"
         values="-1 0 0 0 1 0 -1 0 0 1 0 0 -1 0 1 0 0 0 1 0 "
         in="fbSourceGraphic" /></filter><filter
       id="mask-powermask-path-effect535_inverse"
       inkscape:label="filtermask-powermask-path-effect535"
       style="color-interpolation-filters:sRGB"
       height="100"
       width="100"
       x="-50"
       y="-50"><feColorMatrix
         id="mask-powermask-path-effect535_primitive1"
         values="1"
         type="saturate"
         result="fbSourceGraphic" /><feColorMatrix
         id="mask-powermask-path-effect535_primitive2"
         values="-1 0 0 0 1 0 -1 0 0 1 0 0 -1 0 1 0 0 0 1 0 "
         in="fbSourceGraphic" /></filter><filter
       id="mask-powermask-path-effect545_inverse"
       inkscape:label="filtermask-powermask-path-effect545"
       style="color-interpolation-filters:sRGB"
       height="100"
       width="100"
       x="-50"
       y="-50"><feColorMatrix
         id="mask-powermask-path-effect545_primitive1"
         values="1"
         type="saturate"
         result="fbSourceGraphic" /><feColorMatrix
         id="mask-powermask-path-effect545_primitive2"
         values="-1 0 0 0 1 0 -1 0 0 1 0 0 -1 0 1 0 0 0 1 0 "
         in="fbSourceGraphic" /></filter><filter
       id="mask-powermask-path-effect555_inverse"
       inkscape:label="filtermask-powermask-path-effect555"
       style="color-interpolation-filters:sRGB"
       height="100"
       width="100"
       x="-50"
       y="-50"><feColorMatrix
         id="mask-powermask-path-effect555_primitive1"
         values="1"
         type="saturate"
         result="fbSourceGraphic" /><feColorMatrix
         id="mask-powermask-path-effect555_primitive2"
         values="-1 0 0 0 1 0 -1 0 0 1 0 0 -1 0 1 0 0 0 1 0 "
         in="fbSourceGraphic" /></filter><filter
       id="mask-powermask-path-effect600_inverse"
       inkscape:label="filtermask-powermask-path-effect600"
       style="color-interpolation-filters:sRGB"
       height="100"
       width="100"
       x="-50"
       y="-50"><feColorMatrix
         id="mask-powermask-path-effect600_primitive1"
         values="1"
         type="saturate"
         result="fbSourceGraphic" /><feColorMatrix
         id="mask-powermask-path-effect600_primitive2"
         values="-1 0 0 0 1 0 -1 0 0 1 0 0 -1 0 1 0 0 0 1 0 "
         in="fbSourceGraphic" /></filter><inkscape:path-effect
       effect="fill_between_many"
       method="originald"
       linkedpaths="#path620,0,1"
       id="path-effect1303"
       is_visible="true"
       lpeversion="0"
       join="true"
       close="true"
       autoreverse="true" /><inkscape:path-effect
       effect="fill_between_many"
       method="originald"
       linkedpaths="#path1941,0,1"
       id="path-effect1952"
       is_visible="true"
       lpeversion="0"
       join="true"
       close="true"
       autoreverse="true" /><inkscape:path-effect
       effect="fill_between_many"
       method="originald"
       linkedpaths="#path1941,0,1"
       id="path-effect1989"
       is_visible="true"
       lpeversion="0"
       join="true"
       close="true"
       autoreverse="true" /><filter
       id="mask-powermask-path-effect2000_inverse"
       inkscape:label="filtermask-powermask-path-effect2000"
       style="color-interpolation-filters:sRGB"
       height="100"
       width="100"
       x="-50"
       y="-50"><feColorMatrix
         id="mask-powermask-path-effect2000_primitive1"
         values="1"
         type="saturate"
         result="fbSourceGraphic" /><feColorMatrix
         id="mask-powermask-path-effect2000_primitive2"
         values="-1 0 0 0 1 0 -1 0 0 1 0 0 -1 0 1 0 0 0 1 0 "
         in="fbSourceGraphic" /></filter><filter
       id="mask-powermask-path-effect2012_inverse"
       inkscape:label="filtermask-powermask-path-effect2012"
       style="color-interpolation-filters:sRGB"
       height="100"
       width="100"
       x="-50"
       y="-50"><feColorMatrix
         id="mask-powermask-path-effect2012_primitive1"
         values="1"
         type="saturate"
         result="fbSourceGraphic" /><feColorMatrix
         id="mask-powermask-path-effect2012_primitive2"
         values="-1 0 0 0 1 0 -1 0 0 1 0 0 -1 0 1 0 0 0 1 0 "
         in="fbSourceGraphic" /></filter><mask
       maskUnits="userSpaceOnUse"
       id="mask1796"><g
         id="g1804"
         transform="translate(51.197266,138.62988)"><g
           id="g1802"
           transform="translate(-51.197266,-138.62988)"><path
             id="path1798"
             style="fill:#ffffff;fill-opacity:1"
             d="M 58.416014,158.91406 H 451.66797 v 196.875 H 58.416014 Z"
             sodipodi:nodetypes="ccccc" /><path
             d="m 120.84303,137.74529 -52.957364,20.37707 -20.37707,52.95735 52.957354,-20.37706 z"
             id="path1800"
             style="display:inline;fill:#000000;fill-opacity:1;stroke-width:1.15125"
             inkscape:label="Needleq"
             sodipodi:nodetypes="ccccc" /></g></g></mask></defs><g
     id="layer2"
     inkscape:label="Layer 2"
     class="UnoptimicedTransforms"
     inkscape:groupmode="layer" /><g
     inkscape:label="Layer 1"
     id="layer1"
     transform="translate(-51.197266,-138.62988)"
     inkscape:groupmode="layer"><path
       id="path1637"
       style="font-size:236.576px;font-family:Impact;-inkscape-font-specification:Impact;display:none;fill:#000000;stroke-width:19.7146"
       d="m 174.35547,159.91406 c -11.55141,0 -21.40931,1.88665 -29.57227,5.66016 -8.16295,3.6965 -14.09256,8.85758 -17.78906,15.48047 -3.61949,6.62275 -5.42969,17.09614 -5.42969,31.41992 0,9.93419 1.2713,18.09656 3.8125,24.48828 2.61835,6.39172 5.89098,11.39809 9.81836,15.01758 3.92753,3.61948 11.93686,9.43442 24.02735,17.44336 12.09034,7.93192 19.67544,13.59201 22.75586,16.98047 3.00326,3.38831 4.50585,10.58922 4.50586,21.60156 0,5.00553 -0.80857,8.77897 -2.42579,11.32031 -1.54006,2.54134 -3.92767,3.8125 -7.16211,3.8125 -3.23429,0 -5.50723,-1.00178 -6.8164,-3.0039 -1.23217,-2.00227 -1.84766,-6.50783 -1.84766,-13.51563 v -22.75586 h -45.16601 v 12.24414 c 0,14.01574 1.42419,24.83496 4.27343,32.45899 2.84939,7.62388 8.8574,13.90155 18.02149,18.83007 9.2411,4.92867 20.3682,7.39258 33.38281,7.39258 11.85945,0 22.25639,-2.11808 31.18945,-6.35351 8.93306,-4.31258 14.93926,-9.6267 18.01953,-15.94141 3.15743,-6.31471 4.73633,-16.13243 4.73633,-29.45508 0,-18.32818 -2.80988,-31.61355 -8.43164,-39.85351 -5.62161,-8.23997 -19.25295,-18.78995 -40.89258,-31.65039 -7.54687,-4.4666 -12.12887,-8.28022 -13.74609,-11.4375 -1.69423,-3.15743 -2.54102,-7.8541 -2.54102,-14.0918 0,-4.85165 0.73031,-8.47206 2.19336,-10.85938 1.54021,-2.38718 3.77478,-3.58007 6.70118,-3.58007 2.69522,0 4.62023,0.88501 5.77539,2.65625 1.15515,1.77109 1.73242,5.89064 1.73242,12.35937 v 13.86328 h 45.16601 v -7.39453 c 0,-14.86271 -1.46227,-25.37433 -4.38867,-31.53516 -2.84924,-6.23769 -8.74063,-11.39696 -17.67383,-15.47851 -8.85604,-4.08155 -19.59896,-6.12305 -32.22851,-6.12305 z m 73.58203,3.92774 v 187.01953 h 48.63281 v -78.55078 h 30.03321 v -35.57813 h -30.03321 v -35.46289 h 33.73047 V 163.8418 Z m 94.14648,0 v 187.01953 h 40.66016 V 265.8418 l 25.29883,85.01953 h 42.625 V 163.8418 h -40.66211 v 84.21093 L 382.74414,163.8418 Z M 58.859504,197.69208 59.416016,350.86133 H 107.4707 V 197.57227 Z"
       inkscape:label="iSFN"
       sodipodi:nodetypes="sccsccccscscsccsccsccscccscscsccsccsccccccccccccccccccccccccccc"
       mask="url(#mask1796)"
       clip-path="none" /><path
       id="path273"
       style="display:inline;fill:#000000;fill-opacity:1;stroke-width:1.07946"
       inkscape:label="Needle"
       d="m 119.95801,138.62988 -49.65515,19.10559 -19.105594,49.65515 49.655154,-19.10559 z m -34.380371,23.61319 c 2.752612,0 5.506094,1.05123 7.611034,3.15614 4.209881,4.2099 4.209881,11.01219 0,15.22208 -4.101934,4.20986 -11.010081,4.20986 -15.219961,0 -4.209878,-4.20989 -4.209878,-11.01218 0,-15.22208 2.10494,-2.10491 4.856314,-3.15614 7.608927,-3.15614 z" /></g></svg>
